<svg width="44" height="44" viewBox="0 0 44 44" fill="none" xmlns="http://www.w3.org/2000/svg">
<g clip-path="url(#clip0_23_1485)">
<path fill-rule="evenodd" clip-rule="evenodd" d="M24.85 24.282C26.0253 23.6477 26.9555 22.6394 27.493 21.4168C28.0306 20.1942 28.1449 18.8272 27.8178 17.5323C27.4907 16.2374 26.7409 15.0887 25.6872 14.2681C24.6335 13.4474 23.3361 13.0018 22.0005 13.0018C20.6649 13.0018 19.3675 13.4474 18.3138 14.2681C17.2601 15.0887 16.5103 16.2374 16.1832 17.5323C15.8561 18.8272 15.9704 20.1942 16.508 21.4168C17.0455 22.6394 17.9757 23.6477 19.151 24.282C15.962 24.867 13 26.23 13 27V31H31V27C31 26.23 28.038 24.868 24.85 24.282ZM26 19C26 20.0609 25.5786 21.0783 24.8284 21.8284C24.0783 22.5786 23.0609 23 22 23C20.9391 23 19.9217 22.5786 19.1716 21.8284C18.4214 21.0783 18 20.0609 18 19C18 17.9391 18.4214 16.9217 19.1716 16.1716C19.9217 15.4214 20.9391 15 22 15C23.0609 15 24.0783 15.4214 24.8284 16.1716C25.5786 16.9217 26 17.9391 26 19ZM29 27.748V29H15V27.748C15.377 27.53 15.947 27.268 16.673 27.008C18.269 26.438 20.287 26 22 26C23.713 26 25.73 26.438 27.327 27.009C28.053 27.268 28.623 27.53 29 27.749V27.748Z" fill="#0D1421"/>
</g>
<defs>
<clipPath id="clip0_23_1485">
<rect width="24" height="24" fill="white" transform="translate(10 10)"/>
</clipPath>
</defs>
</svg>
